<?xml version="1.0" encoding="iso-8859-1"?>
<!-- Generator: Adobe Illustrator 18.1.1, SVG Export Plug-In . SVG Version: 6.00 Build 0)  -->
<svg version="1.1" id="Capa_1" xmlns="http://www.w3.org/2000/svg" xmlns:xlink="http://www.w3.org/1999/xlink" x="0px" y="0px"
	 viewBox="0 0 56.564 56.564" style="enable-background:new 0 0 46.564 46.564;" xml:space="preserve">
<g>
	<path style="fill:#FFFFFF;" d="M36.904,22.163v-6.786l-4.897-4.896v4.803h1.636l1.023,1.022v7.026l6.438,4.48V42.31
		c-0.017,0.472-0.208,2.015-1.891,2.015c-1.729,0-1.991-1.635-2.03-2.029v-10.87h-5.492V3.841C31.691,1.72,29.973,0,27.853,0H7.056
		C4.934,0,3.218,1.72,3.218,3.841v38.23c0,2.122,1.716,3.842,3.838,3.842h20.797c2.12,0,3.838-1.72,3.838-3.842v-8.406h3.254v8.68
		l0.005,0.074c0.096,1.434,1.11,4.145,4.265,4.145c2.96,0,4.091-2.508,4.131-4.219V26.643L36.904,22.163z M27.813,16.099H7.096V4.62
		h20.717V16.099L27.813,16.099z"/>
</g>
<g>
</g>
<g>
</g>
<g>
</g>
<g>
</g>
<g>
</g>
<g>
</g>
<g>
</g>
<g>
</g>
<g>
</g>
<g>
</g>
<g>
</g>
<g>
</g>
<g>
</g>
<g>
</g>
<g>
</g>
</svg>
