<svg height='300px' width='300px'  fill="#FFFFFF" xmlns="http://www.w3.org/2000/svg" xmlns:xlink="http://www.w3.org/1999/xlink" version="1.1" x="0px" y="0px" viewBox="0 0 739.844 1000" enable-background="new 0 0 739.844 1000" xml:space="preserve"><path d="M728.234,879.955c-1.49,33.746-11.405,64.213-36.048,88.128c-14.321,13.899-31.496,21.952-51.487,22.573  c-14.495,0.447-29.007,0.302-43.511,0.312c-56.969,0.037-113.934,0.049-170.903,0.037c-17.797-0.002-35.592-0.134-53.391-0.136  c-64.223-0.017-128.443,0.014-192.664-0.035c-6.661-0.007-13.321-0.607-19.981-0.576c-7.872,0.04-15.744,0.753-23.612,0.663  c-16.026-0.183-32.155,0.339-48.042-1.376c-17.199-1.856-31.732-10.848-43.886-23.242c-16.047-16.356-26.266-36.135-30.424-58.831  c-1.992-10.887-3.52-22.032-3.592-33.071c-0.083-12.423,2.126-24.742,5.477-36.854c2.659-9.599,3.969-19.578,6.144-29.328  c4.56-20.445,9.325-40.844,13.947-61.274c4.962-21.923,9.889-43.859,14.771-65.8c4.486-20.184,8.848-40.39,13.351-60.569  c3.686-16.515,7.433-33.017,11.211-49.511l5.262-24.161c-0.041-0.404-0.083-0.806-0.125-1.211c0.145-0.069,0.289-0.137,0.433-0.206  l6.832-31.367l0.171,0.034c1.689-7.667,3.373-15.336,5.169-22.979c6.38-27.128,18.639-50.649,41.211-67.505  c13.461-10.06,28.571-15.469,45.404-15.469c66.963,0.009,133.924,0,200.886,0.009c5.575,0,5.645,0.075,5.649,5.956  c0.009,18.402,0.009,36.802,0,55.207c0,6.254-0.017,6.261-6.022,6.261c-64.641,0-129.281,0.163-193.918-0.16  c-10.758-0.051-16.986,5.217-21.856,13.836c-4.434,7.847-6.222,16.526-8.157,25.209c-4.433,19.911-9.113,39.758-13.575,59.658  c-3.766,16.791-7.319,33.63-11.051,50.427c-4.874,21.95-9.8,43.882-14.759,65.808c-4.5,19.895-9.129,39.756-13.594,59.656  c-2.728,12.163-5.153,24.397-7.892,36.559c-3.833,17.028-8.151,33.95-11.661,51.047c-2.975,14.506-7.7,28.776-6.473,43.975  c1.051,13.033,4.365,25.121,12.942,35.255c3.504,4.139,7.781,6.108,13.296,6.08c42.18-0.172,84.357-0.247,126.537-0.237  c133.386,0.033,266.77,0.037,400.152,0.315c12.346,0.024,17.588-1.918,24.841-17.289c7.41-15.709,7.466-32.172,3.633-48.918  c-3.903-17.041-7.438-34.176-11.253-51.24c-3.688-16.5-7.597-32.943-11.284-49.443c-4.544-20.312-8.93-40.662-13.445-60.983  c-4.874-21.942-9.783-43.877-14.738-65.799c-4.558-20.163-9.259-40.293-13.781-60.464c-4.524-20.174-8.742-40.423-13.422-60.559  c-2.463-10.587-5.582-21.195-14.422-28.298c-2.986-2.398-7.329-4.154-11.095-4.236c-18.89-0.427-37.796-0.293-56.692-0.12  c-3.876,0.037-5.261-1.052-5.224-5.15c0.174-19.1,0.15-38.199,0.017-57.302c-0.028-3.738,1.093-5.239,4.913-5.208  c18.757,0.158,37.514,0.328,56.269,0.1c34.513-0.422,58.589,16.947,76.128,45.677c9.447,15.481,13.761,32.785,17.356,50.411  c2.408,11.798,5.725,23.401,8.476,35.132c1.264,5.387,2.047,10.896,3.214,16.313c2.254,10.438,4.636,20.849,6.942,31.279  c4.489,20.327,8.905,40.668,13.454,60.979c3.762,16.786,7.736,33.521,11.471,50.314c2.046,9.2,3.625,18.507,5.711,27.699  c3.682,16.204,7.703,32.323,11.372,48.528c4.563,20.165,8.588,40.463,13.464,60.545  C725.955,849.837,728.907,864.718,728.234,879.955z M464.704,568.076c-14.738,0.831-29.537,0.637-44.312,0.681  c-3.237,0.01-6.587-0.477-9.7-1.396c-13.87-4.078-24.707-17.102-24.045-34.216c0.455-11.687-0.043-23.409-0.181-35.114  c-0.047-4.092-0.959-4.87-4.266-2.841c-2.26,1.389-5.106,3.779-5.443,6.067c-1.08,7.359-1.512,14.88-1.468,22.331  c0.056,9.694,1.027,19.375,1.217,29.062c0.902,45.843,1.645,91.685,2.543,137.523c0.064,3.236-0.786,4.446-4.085,4.4  c-11.909-0.148-23.824-0.138-35.735,0c-3.207,0.039-4.251-1.015-4.186-4.329c0.3-15.468,0.366-30.935,0.53-46.402  c0.053-4.913-0.397-9.854-5.357-12.139c-2.735-1.251-6.077-1.567-9.147-1.579c-37.104-0.104-74.211-0.088-111.317-0.057  c-1.899,0-3.827,0.231-5.695,0.603c-4.006,0.794-6.705,3.271-7.388,7.37c-1.073,6.438-1.792,12.935-2.702,19.396  c-2.033,14.444-4.158,28.873-6.114,43.325c-1.36,10.058-2.409,20.152-3.763,30.208c-1.965,14.596-4.141,29.153-6.108,43.746  c-1.354,10.056-2.414,20.155-3.771,30.21c-1.956,14.457-4.087,28.889-6.097,43.337c-1.569,11.283-2.963,22.592-4.631,33.864  c-1.161,7.845,3.499,13.844,11.28,13.898c17.25,0.122,34.5,0.23,51.75,0.221c31.078-0.016,62.159-0.377,93.233-0.058  c10.355,0.105,14.328-6.264,14.246-14.491c-0.235-23.136-0.035-46.278-0.135-69.415c-0.014-3.16,0.739-4.299,4.107-4.34  c31.068-0.335,62.13-0.867,96.706-1.402c27.434,0,58.376,0.041,89.321-0.024c9.589-0.02,13.924-5.443,12.693-14.991  c-1.598-12.404-2.992-24.844-4.364-37.281c-1.123-10.227-2.01-20.481-3.134-30.711c-1.349-12.299-2.918-24.579-4.251-36.886  c-1.317-12.128-2.374-24.286-3.695-36.411c-1.139-10.463-2.551-20.892-3.712-31.353c-1.153-10.362-2.068-20.753-3.216-31.12  c-1.313-11.886-2.846-23.744-4.143-35.631c-1.779-16.311-3.207-32.662-5.34-48.924c-0.371-2.823-2.997-5.997-5.45-7.728  c-4.22-2.973-5.704-1.84-5.724,3.407c-0.04,12.543,0.08,25.089-0.083,37.633C493.376,551.764,480.605,567.176,464.704,568.076z   M402.035,303.88v207.41c0,24.735,17.252,44.783,38.534,44.783s38.534-20.048,38.534-44.783V303.503  c61.233-17.242,106.529-74.061,107.284-141.595c0.935-83.62-64.78-149.851-144.132-150.895  c-82.397-1.09-146.615,65.903-148.454,145.244C292.176,226.48,338.645,286.601,402.035,303.88z"></path></svg>