<?xml version="1.0" encoding="iso-8859-1"?>
<!-- Generator: Adobe Illustrator 19.0.0, SVG Export Plug-In . SVG Version: 6.00 Build 0)  -->
<svg version="1.1" id="Layer_1" xmlns="http://www.w3.org/2000/svg" xmlns:xlink="http://www.w3.org/1999/xlink" x="0px" y="0px"
	 viewBox="0 0 631 612" style="enable-background:new 0 0 512 512;" xml:space="preserve" fill="#FFFFFF">
<g>
	<g>
		<g>
			<path d="M319.663,17.515C317.807,7.36,308.975,0,298.671,0C133.978,0,0.004,114.837,0.004,256c0,141.141,133.973,256,298.667,256
				c10.304,0,19.136-7.381,20.992-17.536l2.197-12.053c26.069-153.365,26.048-305.792-0.043-453.077L319.663,17.515z"/>
			<path d="M405.329,85.327h85.333c11.797,0,21.333-9.557,21.333-21.333S502.46,42.66,490.662,42.66h-85.333
				c-11.797,0-21.333,9.557-21.333,21.333S393.532,85.327,405.329,85.327z"/>
			<path d="M490.662,170.66h-85.333c-11.797,0-21.333,9.557-21.333,21.333s9.536,21.333,21.333,21.333h85.333
				c11.797,0,21.333-9.557,21.333-21.333S502.46,170.66,490.662,170.66z"/>
			<path d="M490.662,298.66h-85.333c-11.797,0-21.333,9.557-21.333,21.333s9.536,21.333,21.333,21.333h85.333
				c11.797,0,21.333-9.557,21.333-21.333S502.46,298.66,490.662,298.66z"/>
			<path d="M490.662,426.66h-85.333c-11.797,0-21.333,9.557-21.333,21.333s9.536,21.333,21.333,21.333h85.333
				c11.797,0,21.333-9.557,21.333-21.333S502.46,426.66,490.662,426.66z"/>
		</g>
	</g>
</g>
<g>
</g>
<g>
</g>
<g>
</g>
<g>
</g>
<g>
</g>
<g>
</g>
<g>
</g>
<g>
</g>
<g>
</g>
<g>
</g>
<g>
</g>
<g>
</g>
<g>
</g>
<g>
</g>
<g>
</g>
</svg>
