<?xml version="1.0" encoding="iso-8859-1"?>
<!-- Generator: Adobe Illustrator 19.0.0, SVG Export Plug-In . SVG Version: 6.00 Build 0)  -->
<svg version="1.1" id="Layer_1" xmlns="http://www.w3.org/2000/svg" xmlns:xlink="http://www.w3.org/1999/xlink" x="0px" y="0px"
	 viewBox="0 0 632 612" style="enable-background:new 0 0 512 512;" xml:space="preserve" fill="#FFFFFF">
<g>
	<g>
		<g>
			<path d="M319.66,17.515C317.804,7.36,308.972,0,298.668,0C133.975,0,0.001,114.837,0.001,256c0,141.141,133.973,256,298.667,256
				c10.304,0,19.136-7.381,20.992-17.536l2.197-12.053c26.069-153.365,26.048-305.792-0.043-453.077L319.66,17.515z"/>
			<path d="M373.015,146.285l106.667,64c3.435,2.069,7.232,3.051,10.965,3.051c7.253,0,14.315-3.691,18.304-10.368
				c6.059-10.091,2.795-23.211-7.317-29.269l-106.667-64c-10.112-6.08-23.232-2.773-29.269,7.317
				C359.639,127.127,362.903,140.226,373.015,146.285z"/>
			<path d="M501.638,301.702l-106.667-64c-10.133-6.08-23.232-2.773-29.269,7.317c-6.059,10.091-2.795,23.211,7.317,29.269
				l106.667,64c3.435,2.069,7.232,3.029,10.944,3.029c7.253,0,14.315-3.669,18.325-10.347
				C515.013,320.86,511.75,307.761,501.638,301.702z"/>
			<path d="M501.638,429.702l-106.667-64c-10.133-6.08-23.232-2.773-29.269,7.317c-6.059,10.091-2.795,23.211,7.317,29.269
				l106.667,64c3.435,2.069,7.232,3.029,10.944,3.029c7.253,0,14.315-3.669,18.325-10.347
				C515.013,448.86,511.75,435.761,501.638,429.702z"/>
		</g>
	</g>
</g>
<g>
</g>
<g>
</g>
<g>
</g>
<g>
</g>
<g>
</g>
<g>
</g>
<g>
</g>
<g>
</g>
<g>
</g>
<g>
</g>
<g>
</g>
<g>
</g>
<g>
</g>
<g>
</g>
<g>
</g>
</svg>
