<?xml version="1.0" encoding="iso-8859-1"?>
<!-- Generator: Adobe Illustrator 19.0.0, SVG Export Plug-In . SVG Version: 6.00 Build 0)  -->
<svg version="1.1" id="Layer_1" xmlns="http://www.w3.org/2000/svg" xmlns:xlink="http://www.w3.org/1999/xlink" x="0px" y="0px"
	 viewBox="0 0 512.006 512.006" style="enable-background:new 0 0 512.006 512.006;" xml:space="preserve" fill="#FFFFFF">
<g>
	<g>
		<path d="M504.408,388.995c-31.36-26.347-66.155-46.592-102.677-61.44c-6.187-48.896-20.224-92.203-39.957-125.824l101.312-101.312
			c8.341-8.341,8.341-21.824,0-30.165c-8.341-8.341-21.824-8.341-30.165,0l-96.832,96.811c-6.955-7.467-14.272-14.144-21.973-19.584
			c16.64-15.595,27.221-37.589,27.221-62.144c0-47.061-38.272-85.333-85.333-85.333s-85.333,38.272-85.333,85.333
			c0,24.555,10.581,46.549,27.221,62.144c-44.16,31.147-76.928,97.216-87.488,179.243c-36.928,14.933-71.872,35.52-103.019,62.485
			c-8.917,7.701-9.899,21.184-2.176,30.08c7.68,8.917,21.184,9.899,30.08,2.176c22.037-19.051,46.187-34.56,71.659-46.827
			c-0.064,3.136-0.277,6.187-0.277,9.365c0,39.232,4.992,77.035,14.869,112.405c2.56,9.216,10.965,15.595,20.544,15.595h71.253
			c11.776,0,21.333-9.557,21.333-21.333l-0.171-76.331c11.861-11.84,31.168-11.84,42.837-0.427v76.757
			c0,11.776,9.557,21.333,21.333,21.333h71.253c9.579,0,17.984-6.379,20.544-15.595c9.877-35.371,14.869-73.173,14.869-112.405
			c0-2.88-0.192-5.653-0.235-8.512c25.344,12.203,49.579,27.456,71.829,46.187c4.011,3.349,8.875,4.992,13.739,4.992
			c6.08,0,12.096-2.581,16.341-7.595C514.584,410.051,513.411,396.59,504.408,388.995z M200.6,302.574
			c-14.955,2.091-29.845,4.757-44.459,8.597c15.253-81.003,54.784-140.501,99.861-140.501c18.069,0,35.243,9.536,50.325,26.155
			L200.6,302.574z M264.579,298.926l65.92-65.92c11.2,22.144,19.968,49.109,25.515,78.912
			C326.061,303.896,295.341,299.694,264.579,298.926z"/>
	</g>
</g>
<g>
</g>
<g>
</g>
<g>
</g>
<g>
</g>
<g>
</g>
<g>
</g>
<g>
</g>
<g>
</g>
<g>
</g>
<g>
</g>
<g>
</g>
<g>
</g>
<g>
</g>
<g>
</g>
<g>
</g>
</svg>
